<svg xmlns="http://www.w3.org/2000/svg" width="1024" height="1024"><path fill="#FEFEFE" d="M0 0h1024v1024H0V0z"/><defs><linearGradient id="prefix__a" gradientUnits="userSpaceOnUse" x1="319.36" y1="244.47" x2="782.604" y2="833.182"><stop offset="0" stop-color="#CD0102"/><stop offset="1" stop-color="#FF0807"/></linearGradient></defs><path fill="url(#prefix__a)" d="M354.668 764.85l-.272-439.999c-6.076 1.269-19.803 5.231-25.146 1.548-1.711-1.179-2.814-2.859-3.202-4.899-.478-2.515-.267-5.452 1.429-7.5a8.678 8.678 0 013.767-2.598c6.925-2.377 16.259-2.395 23.588-3.094-.022-1.639.151-15.29-.209-15.694-.088-.099-2.596-.35-2.929-.396-6.244-.855-18.964-1.318-23.271-5.95-1.706-1.836-2.511-4.317-2.281-6.806.24-2.596 1.499-4.555 3.608-6.066.687-.492 2.053-1.503 2.855-1.72 1.639-.442 4.696.469 6.395.786l15.347 2.978c.985-4.13.295-10.119.317-14.442l.156-33.611.109-162.91 113.658 75.454c21.437-5.841 42.977-7.544 65-4.559 5.461.74 10.778 2.002 16.163 3.133.976.205 3.883 1.108 4.775.935 1.425-.276 4.821-3.054 6.182-3.922l31.533-20.885 47.155-30.196C649.512 77.9 659.556 70.65 670.006 64.7l.021 210.459 11.135-2.665c4.293-1.068 9.992-3.439 14.088-1.02 2.153 1.271 3.728 3.856 4.247 6.276.525 2.45.5 4.733-.957 6.861-2.994 4.375-10.239 4.528-15.04 5.427l-10.699 2.084-2.542.435c-.143.212 0 2.91 0 3.285l.001 11.729 14.99 2.926c4.018.818 10.347 1.27 12.841 5.012 1.418 2.129 1.869 4.976 1.223 7.46-.78 2.998-3.241 4.978-5.869 6.326-1.523.781-3.146.335-4.817.146-6.148-.693-12.404-2.349-18.478-3.586l-.043 405.123-.077 114.891.005 32.273c.002 7.215.355 14.54-.715 21.694-2.206 14.743-10.404 29.629-20.949 40.061-9.146 9.048-21.179 15.98-33.798 18.747-9.351 2.051-19.166 1.455-28.688 1.503l-34.993.151-76.626-.132-49.516.254c-18.422-.174-36.497-8.855-49.208-21.941-9.962-10.256-16.352-23.046-19.335-36.974-1.806-8.434-1.602-16.99-1.618-25.559l-.015-28.967.085-81.727.009-.402z"/><path d="M378.088 319.538l23.779-5.818c1.015.789 1.015.778 1.299 2.03-1.739 1.526-5.359 2.093-7.635 2.649l-17.483 4.064-.713-1.461.753-1.464zM647.008 322.807c-8.548-1.916-19.435-3.641-27.258-7.431l-.06-1.185c.437-.205.839-.511 1.31-.615 1.794-.396 7.126 1.598 9 2.084l18.601 4.407-1.593 2.74zM646.552 296.174c1.119-.22 2.107-.55 3.198-.065l.291 8.226-19.677-2.027c-3.122-.237-6.076-.863-9.126-1.535l25.314-4.599z"/><path fill="#FEFEFE" d="M511.006 316.695l2.916.775c.202 5.676 1.258 10.888 4.882 15.468 3.345 4.225 8.252 7.106 13.696 7.42 8.018.463 15.622-4.656 18.99-11.739 1.081-2.275 1.653-5.839 3.51-7.5 1.498.216 1.919.227 3.105 1.131.016.764.034 1.493-.091 2.25-1.008 6.112-5.73 12.932-10.764 16.463-5.277 3.702-12.246 4.987-18.549 3.693-8.104-1.663-12.702-7.044-16.999-13.585l-1.733 2.85c-3.811 5.82-9.428 9.835-16.347 11.114-6.058 1.119-12.443-.626-17.407-4.181-5.654-4.048-10.437-11.473-11.571-18.354.777-1.26 1.247-1.215 2.606-1.706 2.245.938 3.775 6.734 5.214 9.046 3.12 5.01 7.968 8.874 13.784 10.2 4.747 1.082 9.604-.18 13.623-2.839 7.4-4.895 9.422-12.33 11.135-20.506z"/><path fill="#FED514" d="M511.006 316.695c-6.785-4.837-14.131-12.307-18.312-19.586-.549-.955-.91-1.757-1.08-2.859.711-1.6 1.197-2.083 2.636-3.082 6.819-1.233 14.375-.812 21.316-.93 5.053-.087 11.007-.827 15.934.366 1.425 1.143 1.644 1.347 2.327 3.146-.691 5.748-9.752 14.757-14.055 18.554-1.788 1.578-4.557 3.227-5.85 5.166l-2.916-.775z"/><path fill="#FEFEFE" d="M571.465 229.192c6.421-.113 13.339 1.58 18.722 5.173 6.365 4.248 11.921 11.427 13.382 19.027 1.653 8.601-.227 17.161-5.166 24.397-5.504 8.064-14.129 12.093-23.48 13.761l-7.673-.106c-7.613-.564-14.776-5.089-19.471-10.93-4.672-5.814-7.88-14.332-6.99-21.835.731-6.166 2.447-12.092 6.471-16.972 6.314-7.66 14.393-11.554 24.205-12.515z"/><path d="M567.151 245.074c3.849-.567 6.141-.108 9.516 1.676-.849.74-1.908 1.551-2.531 2.5-.933 1.424-1.149 3.74-.635 5.319.712 2.189 2.465 3.809 4.499 4.744 2.235-.204 3.64-.842 5.247-2.401.509-.493.157-.335 1.003-.34.676 1.961.996 4.145.703 6.213-.689 4.861-3.552 7.656-7.363 10.285l-.483.233c-3.344 1.561-8.442 2.562-12.019 1.064-3.875-1.622-7.291-4.69-8.873-8.617-1.577-3.917-1.187-8.227.557-12.007 2.178-4.72 5.696-6.979 10.379-8.669z"/><path fill="#FEFEFE" d="M450.626 229.213c7.874.278 14.988 2.485 21.003 7.771 6.206 5.454 10.193 13.889 10.566 22.136.38 8.39-2.321 16.667-8.017 22.911-6.475 7.097-14.448 9.328-23.714 9.685-7.305-.256-14.032-2.055-19.714-6.86-6.987-5.908-11.47-14.18-12.085-23.361-.542-8.092 3.08-16.365 8.428-22.278 6.347-7.018 14.374-9.475 23.533-10.004z"/><path d="M451.233 244.562l2.133-.205c3.537-.178 6.621.975 9.229 3.393-.45.152-.561.174-1.031.418-1.354.703-2.192 1.597-2.568 3.082-.367 1.447-.412 3.463.386 4.782 1.125 1.864 2.598 2.372 4.618 2.854 1.519-.142 2.171-.797 3.268-1.755l.428-.381.633.387c.477 1.702 1.057 3.467.812 5.253-.646 4.721-4.062 8.223-7.775 10.824l-1.81.849c-3.567 1.479-7.007 1.606-10.583.097-4.044-1.705-7.317-4.797-8.926-8.91-1.481-3.787-1.193-8.592.545-12.235 2.254-4.723 5.884-6.801 10.641-8.453z"/><path fill="#F8972E" d="M648.343 100.25l1.176.273.369 110.062c-10.248-14.454-21.631-27.522-35.069-39.077-11.912-9.955-24.795-16.978-38.693-23.705l.044-.394 72.173-47.159z"/><path fill="#D80608" d="M354.668 764.85l-.272-439.999c-6.076 1.269-19.803 5.231-25.146 1.548-1.711-1.179-2.814-2.859-3.202-4.899-.478-2.515-.267-5.452 1.429-7.5a8.678 8.678 0 013.767-2.598c6.925-2.377 16.259-2.395 23.588-3.094-.022-1.639.151-15.29-.209-15.694-.088-.099-2.596-.35-2.929-.396-6.244-.855-18.964-1.318-23.271-5.95-1.706-1.836-2.511-4.317-2.281-6.806.24-2.596 1.499-4.555 3.608-6.066.687-.492 2.053-1.503 2.855-1.72 1.639-.442 4.696.469 6.395.786l15.347 2.978c.985-4.13.295-10.119.317-14.442l.156-33.611.109-162.91 113.658 75.454-20.675 7.738c-28.413 16.183-56.525 36.061-73.386 64.949-.812 2.699-1.456 66.526-.779 68.678l30.939 6.928-3.022 12.434-1.078.499-.692 1.206c-5.706 1.454-11.945 1.146-17.799 1.722-1.815.179-4.369.146-6.026.885l2.931.28c-1.106.259-2.123.318-3.252.375.001 1.099-.298 2.072.497 2.875l.432 6.738c.066.739.059.497.568 1.262l.005 1.755.97.02-.132 1.263-.753 1.464c-1.172-.433-1.854-.395-3.085-.232-.729 2.439-.351 5.724-.352 8.28l.013 15.072.032 57.016.033 218.397-.028 72.986-.073 35.479-.861-.766c-.002-8.818-.735-78.902.486-80.734-.049-1.104-.058-1.718-.5-2.75l.5-.75c0-2.928.912-11.382-.5-13.5.038-1.309.125-2.003.5-3.25.48-1.598.275-10.588-.5-11.75l.017-151.94.014-42.31c0-4.929-.936-10.365-.138-15.252.429-2.625-.308-5.72-.016-8.498.349-3.313.137-7.005.144-10.359.005-2.488.241-5.225-.159-7.675-.244-1.496.046-3.134-.107-4.716-.323-3.327.263-6.722.245-10l-.123-.75c-.291-3.714-.419-8.17-.056-11.875.468-4.768-.081-10.016.179-14.875l-.123-1.75c-.237-3.331-.133-6.723-.128-10.062.001-.764-.207-2.523.006-3.188.183-.57.663-.997.995-1.495l2.25-.005c-.041-.724-.058-1.28-.315-1.962-.51-1.356.3-3.294-.93-4.038l.13-.562c.409-2.501-.415-4.622-.51-7.063-1.581-.032-2.626.022-4.125.375l-1.61.074c-1.143.068.218.009-1.39.426-.818.212-1.643.278-2.5.5-.818.212-1.643.278-2.5.5-.818.212-1.643.278-2.5.5-.749.194-1.726.326-2.5.5-1.796.403-2.941-.267-4.75.5-1.17.496-2.125.01-3.25 0-.828-.007-1.194.194-1.75.745l-.547-.13c-.779-.153-1.193-.028-1.953.008l-.711-.015c-1.335.002.046-.038-1.539.392l-3.502.125-.748.62-.922-.085c-.977-.079-1.403.112-2.328.34l-1.034.118c-1.236.152-.727-.03-1.716.627l-.875-.12c-1.721.87-3.669 2.063-4.422 3.945-.519 1.299-.67 2.941-.455 4.305l.497.625c-.151 1.734.331 2.2 1.505 3.5.713.789 1.33 1.045 2.248 1.502l.502.375c1.315.739 3.554.653 4.973.449 1.62-.233 3.62-.431 5.238-.434.826-.002.485.057 1.18-.25 1.118-.495 2.416-.452 3.617-.725 1.04-.237.531-.187 1.744-.042 1.244-.618 2.036-.278 3.1-.749.743-.328 1.234-.289 2.023-.251l.875-.62c1.022 1.593 1.134 2.173.75 3.995l.375.875c.256.911-.18 1.309-.375 2.125v20.5l.745.5-.122.56c-.399 2.441-.129 5.009.122 7.44.312 3.013.019 6.354.022 9.414l.004 48.126-.294 88.353c0 12.93-.858 26.503.146 39.357l-.123 229.25h-.452c-.023-2.769.441-6.82-.38-9.4z"/><path fill="#810000" d="M376.069 304.97l-1.377-.622-.196-7.024 26.09 3.833-.692 1.206c-5.706 1.454-11.945 1.146-17.799 1.722-1.815.179-4.369.146-6.026.885z"/><path fill="#F8972E" d="M374.526 212.618c-.529-3.613-.074-7.833-.04-11.508l.142-22.37-.073-78.58 73.357 47.509c-28.413 16.183-56.525 36.061-73.386 64.949z"/><path fill="#F75700" d="M373.875 728l.073-35.479.028-72.986-.033-218.397-.032-57.016-.013-15.072c.001-2.556-.377-5.841.352-8.28 1.231-.163 1.913-.201 3.085.232l.713 1.461c6.166 16.733 16.536 31.517 29.132 43.999 2.962 2.935 6.166 6.342 9.784 8.429l.367.439c1.999 2.138 4.946 3.958 7.325 5.669 6.411 4.608 13.248 8.58 20.344 12.033l11.627 5.335-.145 543.004c-3.781-.766-8.695-.242-12.596-.261-9.293-.044-19.543.839-28.652-.734-9.672-1.67-19.142-7.564-25.984-14.434-7.305-7.336-12.331-17.039-14.381-27.163-1.373-6.778-.862-14.228-.869-21.115l-.002-31.72L373.875 728zM648.601 320.067l2.331.066c1.195 1.707.597 6.595.593 8.862l-.521 404.438-.011 112.175.009 31.562c.002 7.329.401 14.876-.872 22.116-2.451 13.945-11.127 25.859-22.632 33.845-14.714 10.214-32.887 8.244-49.908 8.301-3.623.013-7.501-.27-11.095.147l-.475-543.056.418-.145c9.544-3.432 18.676-8.498 27.13-14.064 20.382-13.418 38.815-31.773 49.47-53.945l3.97-7.562 1.593-2.74z"/><path fill="#D80608" d="M416.964 374.891l.379-.271c2.469.515 5.229 4.069 7.532 5.382l.625.253c1.961 1.211 4.03 2.843 5.992 4.155l.508.345c1.228.795 2.426 1.82 3.813 2.287.878.295.496.055 1.186.571.647.486 1.368.698 2.001 1.142 1.418.994-.594.038 1.297.838.67.284 1.196.537 1.842.908l1.594.878c1.188.595 2.333 1.229 3.595 1.654l.672.222c1.149.583 2.293 1.247 3.498 1.747l2.002.753 1.498.747c.818.308.866.118 1.648.743 1.051.84 2.337 1.652 3.721 1.655l.633-.023.5.373 1 .127.5.373.75.25c1.118.43.546.398 1.617.4l.633-.023c1.034.771 2.202.821 3.375 1.248 1.387.505.357.278 1.469.5l2.031.5c1.148.425 2.262.492 3.375.875.989.34 1.566.258 2.5.5.857.222 1.682.288 2.5.5.973.252 2.128.234 3 .5 1.307.399.41.368 1.39.426 1.45.086 2.673.48 4.116.512l1.494.062c1.535.413 2.637.468 4.25.5 1.582 1.055 5.503.5 7.5.5 1.219.813 2.636.5 4.086.5H519c1.477-.984 4.668-.5 6.5-.5 1.463-.975 2.674-.124 4.25-.5 1.096-.261 2.532-.199 3.5-.5 1.264-.393 2.333-.176 3.5-.5.893-.248 1.652-.28 2.5-.5.857-.222 1.682-.288 2.5-.5l2.625-.625c1.068-.305 2.346-.521 3.375-.875 1.996-.686 4.104-1.048 6.125-1.625.497-.142.962-.399 1.469-.5l2.031-.5c1.334-.494.39-.284 1.469-.5l2.031-.5 2.88-1.125c.897-.219 1.951-.181 2.745-.75l.503-.498.997-.247.75-.5 1 .245c.421-.47.651-.728 1.258-.957l.492-.166.625-.375c1.416-.705-.263.355 1.414-.762l.711-.485.75.245c1.332-.586 2.591-1.214 3.805-2.023l1.445-.977c1.763-.862 3.499-2.262 5.253-2.998 1.397-.585 2.749-1.363 3.997-2.247l1.003-.753a20.279 20.279 0 002.622-1.5c.582-.383 1.076-.674 1.572-1.17l.306-.33c1.181-.003 1.758-.749 2.576-1.563l.424-.437.747-.002.875-.875c.661-.526 1.279-.863 1.884-1.483l.616-.64.625-.002.875-.998c.715-.562 1.254-.715 1.9-1.453 1.448-1.654 3.748-2.973 5.478-4.424 3.971-3.332 7.167-7.716 11.091-11.075l1.031-.925c.707-1.121 1.168-1.888 2.125-2.87l1-1c1.713-2.427 3.866-4.503 5.5-7l4.128-5.755c.577-.742.928-.999 1.203-1.905l.174-.595c.531-.965 1.368-1.536 1.745-2.75.355-1.143.61-1.49 1.432-2.402l.318-.348c.007-1.089.411-1.36 1-2.245l.005-.505.755-.68.528.299c-10.655 22.172-29.088 40.527-49.47 53.945-8.454 5.566-17.586 10.632-27.13 14.064l-.418.145.475 543.056-.38.033c-6.669.633-13.518.101-20.219.054l-39.464-.163-32.922.12c-5.577.026-11.526.54-17.028-.252l.145-543.004L445 393.032c-7.096-3.453-13.933-7.425-20.344-12.033-2.379-1.711-5.326-3.531-7.325-5.669l-.367-.439z"/><path fill="#FED514" d="M509.21 466.25c1.633-.42 2.615-.44 4.29-.228 1.917 1.273 2.894 3.699 3.891 5.706l6.595 13.204c5.931.426 13.554-.057 19.205 1.393 1.69.434 2.445 1.496 3.279 2.925.094 1.034.27 2.297-.09 3.29-1.573 4.336-9.624 9.401-13.462 12.226-.15.11-1.879 1.289-1.918 1.404-.104.31.511 2.29.626 2.815 1.008 4.577 2.15 9.184 2.861 13.817.323 2.1.795 3.905.04 5.948-.692.675-1.384 1.417-2.34 1.683-3.615 1.004-11.528-4.477-14.942-6.376-1.169-.738-4.366-2.467-5.674-2.595-.624-.062-2.88 1.436-3.498 1.779-3.755 2.08-8.507 5.669-12.8 6.272-1.186.166-2.295-.106-3.25-.809-5.236-3.856.989-16.065.279-21.615-.426-3.336-11.89-9.687-12.778-15.839 1.933-6.331 14.437-4.577 19.623-6.878 3.312-1.469 4.933-14.947 10.063-18.122z"/></svg>